<svg width="24" height="24" viewBox="0 0 24 24" fill="none" xmlns="http://www.w3.org/2000/svg">
<path d="M4.41406 14.5858L4.80357 14.1963C4.92924 14.0706 5 13.9002 5 13.7224V10C5 6.13401 8.13401 3.00001 12 3C15.866 2.99999 19 6.134 19 10V13.7224C19 13.9001 19.0706 14.0706 19.1963 14.1963L19.5858 14.5858C19.7048 14.7048 19.7651 14.7651 19.8126 14.8312C19.9024 14.9563 19.9614 15.1004 19.9863 15.2524C19.9995 15.3329 19.9997 15.4172 19.9997 15.5859C19.9997 15.9715 19.9997 16.1643 19.9473 16.3198C19.8475 16.6156 19.616 16.848 19.3201 16.9478C19.1652 17 18.973 17 18.5905 17H15V18C15 19.6569 13.6569 21 12 21C10.3431 21 9 19.6569 9 18V17H5.40956C5.02701 17 4.83556 17 4.68066 16.9478C4.3848 16.848 4.15225 16.6156 4.05245 16.3197C4 16.1642 4 15.9715 4 15.586C4 15.4172 4 15.3329 4.0132 15.2524C4.03815 15.1004 4.09766 14.9564 4.1875 14.8312C4.23504 14.765 4.29476 14.7051 4.41406 14.5858Z" fill="white"/>
</svg>
