<svg width="46" height="46" viewBox="0 0 46 46" fill="none" xmlns="http://www.w3.org/2000/svg">
<rect width="46" height="46" rx="23" fill="url(#paint0_linear_602_5132)"/>
<path d="M16.5996 30.9203L18.1236 29.7012L18.1348 29.6926C18.4525 29.4384 18.6128 29.3101 18.7917 29.2188C18.9522 29.1368 19.1233 29.0771 19.2998 29.0408C19.4988 29 19.706 29 20.1221 29H28.8031C29.921 29 30.4806 29 30.908 28.7822C31.2843 28.5905 31.5905 28.2842 31.7822 27.9079C32 27.4805 32 26.9215 32 25.8036V18.1969C32 17.079 32 16.5192 31.7822 16.0918C31.5905 15.7155 31.2837 15.4097 30.9074 15.218C30.4796 15 29.9203 15 28.8002 15H17.2002C16.0801 15 15.5196 15 15.0918 15.218C14.7155 15.4097 14.4097 15.7155 14.218 16.0918C14 16.5196 14 17.0801 14 18.2002V29.6712C14 30.7369 14 31.2696 14.2185 31.5433C14.4084 31.7813 14.6964 31.9198 15.001 31.9195C15.3512 31.9191 15.7674 31.5861 16.5996 30.9203Z" stroke="white" stroke-width="2" stroke-linecap="round" stroke-linejoin="round"/>
<defs>
<linearGradient id="paint0_linear_602_5132" x1="-7.8552e-10" y1="25.4211" x2="46.8556" y2="25.3461" gradientUnits="userSpaceOnUse">
<stop stop-color="#FFB347"/>
<stop offset="0.33" stop-color="#E86F00"/>
<stop offset="0.66" stop-color="#F755C1"/>
<stop offset="1" stop-color="#8A2BE2"/>
</linearGradient>
</defs>
</svg>
