<svg width="46" height="46" viewBox="0 0 46 46" fill="none" xmlns="http://www.w3.org/2000/svg">
<rect x="0.5" y="0.5" width="45" height="45" rx="22.5" stroke="white"/>
<path d="M15.4141 25.5858L15.8036 25.1963C15.9292 25.0706 16 24.9002 16 24.7224V21C16 17.134 19.134 14 23 14C26.866 14 30 17.134 30 21V24.7224C30 24.9001 30.0706 25.0706 30.1963 25.1963L30.5858 25.5858C30.7048 25.7048 30.7651 25.7651 30.8126 25.8312C30.9024 25.9563 30.9614 26.1004 30.9863 26.2524C30.9995 26.3329 30.9997 26.4172 30.9997 26.5859C30.9997 26.9715 30.9997 27.1643 30.9473 27.3198C30.8475 27.6156 30.616 27.848 30.3201 27.9478C30.1652 28 29.973 28 29.5905 28H26V29C26 30.6569 24.6569 32 23 32C21.3431 32 20 30.6569 20 29V28H16.4096C16.027 28 15.8356 28 15.6807 27.9478C15.3848 27.848 15.1523 27.6156 15.0525 27.3197C15 27.1642 15 26.9715 15 26.586C15 26.4172 15 26.3329 15.0132 26.2524C15.0381 26.1004 15.0977 25.9564 15.1875 25.8312C15.235 25.765 15.2948 25.7051 15.4141 25.5858Z" fill="white"/>
</svg>
