<svg width="46" height="46" viewBox="0 0 46 46" fill="none" xmlns="http://www.w3.org/2000/svg">
<path d="M17.2507 32.5833H28.7507M17.2507 26.8333H28.7507M24.918 5.75167C24.7349 5.75 24.529 5.75 24.2939 5.75H15.7177C13.5708 5.75 12.4966 5.75 11.6766 6.16781C10.9553 6.53532 10.3693 7.12132 10.0018 7.84261C9.58398 8.66261 9.58398 9.73684 9.58398 11.8837V34.117C9.58398 36.2639 9.58398 37.3368 10.0018 38.1568C10.3693 38.8781 10.9553 39.4651 11.6766 39.8326C12.4958 40.25 13.5687 40.25 15.7114 40.25L30.2899 40.25C32.4326 40.25 33.504 40.25 34.3232 39.8326C35.0444 39.4651 35.6324 38.8781 35.9999 38.1568C36.4173 37.3376 36.4173 36.2662 36.4173 34.1235V17.8742C36.4173 17.6391 36.4171 17.4331 36.4154 17.25M24.918 5.75167C25.4652 5.75666 25.8099 5.77696 26.1405 5.85632C26.5316 5.95022 26.9065 6.10509 27.2495 6.31527C27.6362 6.55225 27.9683 6.88431 28.6309 7.54687L34.6214 13.5374C35.2844 14.2004 35.614 14.5309 35.851 14.9178C36.0612 15.2608 36.2167 15.6347 36.3106 16.0259C36.39 16.3564 36.4105 16.7029 36.4154 17.25M24.918 5.75167L24.9173 11.1171C24.9173 13.2639 24.9173 14.337 25.3351 15.157C25.7026 15.8782 26.2886 16.4651 27.0099 16.8326C27.8291 17.25 28.9021 17.25 31.0447 17.25H36.4154" stroke="white" stroke-width="2" stroke-linecap="round" stroke-linejoin="round"/>
</svg>
