<svg width="12" height="12" viewBox="0 0 12 12" fill="none" xmlns="http://www.w3.org/2000/svg">
<path d="M4 2H3.6001C3.04005 2 2.75981 2 2.5459 2.10899C2.35774 2.20487 2.20487 2.35774 2.10899 2.5459C2 2.75981 2 3.04005 2 3.6001V4M4 2H8M4 2V1M8 2H8.4001C8.96015 2 9.23979 2 9.4537 2.10899C9.64186 2.20487 9.79524 2.35774 9.89111 2.5459C10 2.7596 10 3.0395 10 3.59845V4M8 2V1M2 4V8.4001C2 8.96015 2 9.24003 2.10899 9.45394C2.20487 9.6421 2.35774 9.79524 2.5459 9.89111C2.7596 10 3.0395 10 3.59846 10H8.40155C8.9605 10 9.23999 10 9.4537 9.89111C9.64186 9.79524 9.79524 9.6421 9.89111 9.45394C10 9.24024 10 8.96075 10 8.40179V4M2 4H10M8 8H8.001L8.00098 8.001L8 8.00098V8ZM6 8H6.001L6.00098 8.001L6 8.00098V8ZM4 8H4.001L4.00098 8.001L4 8.00098V8ZM8.00098 6V6.001L8 6.00098V6H8.00098ZM6 6H6.001L6.00098 6.001L6 6.00098V6ZM4 6H4.001L4.00098 6.001L4 6.00098V6Z" stroke="white" stroke-opacity="0.8" stroke-width="2" stroke-linecap="round" stroke-linejoin="round"/>
</svg>
