<svg width="12" height="12" viewBox="0 0 12 12" fill="none" xmlns="http://www.w3.org/2000/svg">
<path d="M9.5 4.96143C9.5 7.38734 7.37776 9.39346 6.43841 10.1626C6.30397 10.2727 6.23594 10.3284 6.13565 10.3566C6.05755 10.3786 5.9426 10.3786 5.8645 10.3566C5.76402 10.3283 5.69647 10.2732 5.56152 10.1627C4.62217 9.39354 2.50004 7.38756 2.50004 4.96165C2.50004 4.04359 2.86877 3.16303 3.52515 2.51386C4.18152 1.8647 5.0717 1.5 5.99996 1.5C6.92822 1.5 7.8185 1.86475 8.47487 2.51392C9.13125 3.16308 9.5 4.04337 9.5 4.96143Z" stroke="white" stroke-opacity="0.8" stroke-width="2" stroke-linecap="round" stroke-linejoin="round"/>
<path d="M7 4.5C7 5.05228 6.55228 5.5 6 5.5C5.44772 5.5 5 5.05228 5 4.5C5 3.94772 5.44772 3.5 6 3.5C6.55228 3.5 7 3.94772 7 4.5Z" stroke="white" stroke-opacity="0.8" stroke-width="2" stroke-linecap="round" stroke-linejoin="round"/>
</svg>
