<svg width="24" height="24" viewBox="0 0 24 24" fill="none" xmlns="http://www.w3.org/2000/svg">
  <circle cx="12" cy="12" r="11" fill="#2775CA"/>
  <path d="M12.5 7V8.5H15V9.5H13C12.4477 9.5 12 9.94772 12 10.5V13.5C12 14.0523 12.4477 14.5 13 14.5H15V15.5H9V14.5H11V13.5H9C8.44772 13.5 8 13.0523 8 12.5V9.5C8 8.94772 8.44772 8.5 9 8.5H11V7H12.5Z" fill="white"/>
  <path d="M12 21C16.9706 21 21 16.9706 21 12C21 7.02944 16.9706 3 12 3C7.02944 3 3 7.02944 3 12C3 16.9706 7.02944 21 12 21Z" stroke="white" strokeWidth="1.5"/>
</svg> 