<svg width="22" height="17" viewBox="0 0 22 17" fill="none" xmlns="http://www.w3.org/2000/svg">
<path d="M17.8202 1C18.8193 1.93168 19.617 3.0582 20.1639 4.31005C20.7108 5.5619 20.9954 6.91253 21.0002 8.27863C21.005 9.64473 20.7298 10.9973 20.1916 12.253C19.6534 13.5086 18.8637 14.6406 17.8711 15.5793M15.0922 3.92541C15.6917 4.48442 16.1703 5.16033 16.4984 5.91144C16.8266 6.66255 16.9973 7.47293 17.0002 8.29259C17.0031 9.11225 16.838 9.9238 16.5151 10.6772C16.1922 11.4306 15.7183 12.1098 15.1228 12.673M6.48054 11.7204L8.15578 13.7935C9.02907 14.8742 9.46572 15.4146 9.84827 15.4734C10.1794 15.5243 10.5141 15.406 10.7397 15.1582C11.0002 14.872 11.0002 14.1773 11.0002 12.7879V3.8392C11.0002 2.44975 11.0002 1.75503 10.7397 1.46883C10.5141 1.22109 10.1794 1.10277 9.84827 1.15369C9.46572 1.21251 9.02907 1.75286 8.15578 2.83357L6.48054 4.90667C6.30412 5.12499 6.21591 5.23415 6.10676 5.3127C6.01007 5.38229 5.90171 5.43404 5.78681 5.46551C5.65711 5.50104 5.51676 5.50104 5.23607 5.50104H3.81274C3.05654 5.50104 2.67844 5.50104 2.37288 5.60198C1.77155 5.80063 1.29984 6.27234 1.10119 6.87367C1.00024 7.17923 1.00024 7.55733 1.00024 8.31354C1.00024 9.06974 1.00024 9.44784 1.10119 9.7534C1.29984 10.3547 1.77155 10.8264 2.37288 11.0251C2.67844 11.126 3.05654 11.126 3.81274 11.126H5.23607C5.51676 11.126 5.65711 11.126 5.78681 11.1616C5.90171 11.193 6.01007 11.2448 6.10676 11.3144C6.21591 11.3929 6.30412 11.5021 6.48054 11.7204Z" stroke="white" stroke-width="2" stroke-linecap="round" stroke-linejoin="round"/>
</svg>
