<svg width="82" height="82" viewBox="0 0 82 82" fill="none" xmlns="http://www.w3.org/2000/svg">
<rect width="82" height="82" rx="41" fill="url(#paint0_linear_546_3723)"/>
<path d="M39.5007 47.3747L45.3757 41.4997M45.3757 41.4997L39.5007 35.6247M45.3757 41.4997H23.834M33.6257 32.1948V32.1001C33.6257 29.9065 33.6257 28.8089 34.0525 27.9711C34.428 27.2341 35.0268 26.6354 35.7638 26.2599C36.6016 25.833 37.6992 25.833 39.8927 25.833H48.901C51.0946 25.833 52.1898 25.833 53.0276 26.2599C53.7646 26.6354 54.3653 27.2341 54.7408 27.9711C55.1673 28.8081 55.1673 29.9044 55.1673 32.0936V50.9067C55.1673 53.0959 55.1673 54.1906 54.7408 55.0276C54.3653 55.7646 53.7646 56.3644 53.0276 56.7399C52.1906 57.1663 51.096 57.1663 48.9067 57.1663H39.8863C37.697 57.1663 36.6008 57.1663 35.7638 56.7399C35.0268 56.3644 34.428 55.764 34.0525 55.027C33.6257 54.1892 33.6257 53.0932 33.6257 50.8997V50.8018" stroke="white" stroke-width="2" stroke-linecap="round" stroke-linejoin="round"/>
<defs>
<linearGradient id="paint0_linear_546_3723" x1="-1.40027e-09" y1="45.3158" x2="83.5252" y2="45.1822" gradientUnits="userSpaceOnUse">
<stop stop-color="#FFB347"/>
<stop offset="0.33" stop-color="#E86F00"/>
<stop offset="0.66" stop-color="#F755C1"/>
<stop offset="1" stop-color="#8A2BE2"/>
</linearGradient>
</defs>
</svg>
