<svg width="24" height="24" viewBox="0 0 24 24" fill="none" xmlns="http://www.w3.org/2000/svg">
<path d="M12 2C11.2044 2 10.4413 2.31607 9.87868 2.87868C9.31607 3.44129 9 4.20435 9 5V12C9 12.7956 9.31607 13.5587 9.87868 14.1213C10.4413 14.6839 11.2044 15 12 15C12.7956 15 13.5587 14.6839 14.1213 14.1213C14.6839 13.5587 15 12.7956 15 12V5C15 4.20435 14.6839 3.44129 14.1213 2.87868C13.5587 2.31607 12.7956 2 12 2Z" stroke="url(#paint0_linear_602_5282)" stroke-width="2" stroke-linecap="round" stroke-linejoin="round"/>
<path d="M19 10V12C19 13.8565 18.2625 15.637 16.9497 16.9497C15.637 18.2625 13.8565 19 12 19C10.1435 19 8.36301 18.2625 7.05025 16.9497C5.7375 15.637 5 13.8565 5 12V10" stroke="url(#paint1_linear_602_5282)" stroke-width="2" stroke-linecap="round" stroke-linejoin="round"/>
<path d="M12 19V22" stroke="url(#paint2_linear_602_5282)" stroke-width="2" stroke-linecap="round" stroke-linejoin="round"/>
<defs>
<linearGradient id="paint0_linear_602_5282" x1="9" y1="9.18421" x2="15.1116" y2="9.1797" gradientUnits="userSpaceOnUse">
<stop stop-color="#FFB347"/>
<stop offset="0.33" stop-color="#E86F00"/>
<stop offset="0.66" stop-color="#F755C1"/>
<stop offset="1" stop-color="#8A2BE2"/>
</linearGradient>
<linearGradient id="paint1_linear_602_5282" x1="5" y1="14.9737" x2="19.2603" y2="14.9382" gradientUnits="userSpaceOnUse">
<stop stop-color="#FFB347"/>
<stop offset="0.33" stop-color="#E86F00"/>
<stop offset="0.66" stop-color="#F755C1"/>
<stop offset="1" stop-color="#8A2BE2"/>
</linearGradient>
<linearGradient id="paint2_linear_602_5282" x1="12" y1="20.6579" x2="13.0186" y2="20.6574" gradientUnits="userSpaceOnUse">
<stop stop-color="#FFB347"/>
<stop offset="0.33" stop-color="#E86F00"/>
<stop offset="0.66" stop-color="#F755C1"/>
<stop offset="1" stop-color="#8A2BE2"/>
</linearGradient>
</defs>
</svg>
