<svg width="48" height="48" viewBox="0 0 48 48" fill="none" xmlns="http://www.w3.org/2000/svg">
<path d="M15.0195 39.6035C17.6625 41.1278 20.7291 41.9999 23.9993 41.9999C33.9404 41.9999 42 33.9411 42 24C42 14.0589 33.9411 6 24 6C14.0589 6 6 14.0589 6 24C6 27.2702 6.87209 30.3368 8.39638 32.9798L8.40229 32.99C8.54896 33.2443 8.62292 33.3725 8.65642 33.4937C8.68801 33.608 8.69684 33.7108 8.68875 33.8291C8.68005 33.9562 8.6372 34.088 8.54936 34.3516L7.01172 38.9645L7.00978 38.9706C6.68536 39.9438 6.52314 40.4305 6.63877 40.7547C6.73959 41.0375 6.96337 41.2606 7.24609 41.3614C7.56963 41.4768 8.05409 41.3153 9.02309 40.9923L9.03516 40.9878L13.6481 39.4502C13.9107 39.3626 14.0443 39.3182 14.1712 39.3096C14.2895 39.3015 14.3916 39.3122 14.5059 39.3438C14.6274 39.3773 14.7557 39.4513 15.0113 39.5988L15.0195 39.6035Z" stroke="white" stroke-width="2" stroke-linecap="round" stroke-linejoin="round"/>
</svg>
