<svg width="48" height="48" viewBox="0 0 48 48" fill="none" xmlns="http://www.w3.org/2000/svg">
<path d="M18 34H30M18 28H30M26.0008 6.00174C25.8097 6 25.5948 6 25.3494 6H16.4004C14.1602 6 13.0392 6 12.1836 6.43598C11.4309 6.81947 10.8195 7.43095 10.436 8.18359C10 9.03924 10 10.1602 10 12.4004V35.6004C10 37.8406 10 38.9601 10.436 39.8158C10.8195 40.5684 11.4309 41.181 12.1836 41.5645C13.0384 42 14.158 42 16.3939 42L31.6062 42C33.842 42 34.96 42 35.8148 41.5645C36.5674 41.181 37.181 40.5684 37.5645 39.8158C38 38.961 38 37.843 38 35.6072V18.6514C38 18.406 37.9998 18.1911 37.998 18M26.0008 6.00174C26.5717 6.00695 26.9314 6.02813 27.2764 6.11094C27.6845 6.20893 28.0757 6.37053 28.4336 6.58984C28.8371 6.83713 29.1836 7.18363 29.875 7.875L36.126 14.126C36.8178 14.8178 37.1617 15.1627 37.4091 15.5664C37.6284 15.9243 37.7907 16.3145 37.8887 16.7227C37.9715 17.0676 37.9928 17.4291 37.998 18M26.0008 6.00174L26 11.6004C26 13.8406 26 14.9603 26.436 15.8159C26.8195 16.5686 27.4309 17.181 28.1836 17.5645C29.0384 18 30.158 18 32.3938 18H37.998" stroke="white" stroke-width="2" stroke-linecap="round" stroke-linejoin="round"/>
</svg>
