<svg width="46" height="47" viewBox="0 0 46 47" fill="none" xmlns="http://www.w3.org/2000/svg">
<path d="M17.25 21.5837V38.8337M17.25 21.5837H8.81592C7.74248 21.5837 7.2063 21.5837 6.79631 21.7926C6.43566 21.9763 6.14266 22.2693 5.9589 22.63C5.75 23.04 5.75 23.5771 5.75 24.6505V38.8337H17.25M17.25 21.5837V11.2338C17.25 10.1604 17.25 9.6233 17.4589 9.2133C17.6427 8.85265 17.9357 8.55965 18.2963 8.3759C18.7063 8.16699 19.2425 8.16699 20.3159 8.16699H25.6826C26.756 8.16699 27.2939 8.16699 27.7039 8.3759C28.0645 8.55965 28.3566 8.85265 28.5404 9.2133C28.7493 9.6233 28.75 10.1604 28.75 11.2338V15.8337M17.25 38.8337H28.75M28.75 38.8337L40.25 38.8338V18.9005C40.25 17.8271 40.2493 17.29 40.0404 16.88C39.8566 16.5193 39.5656 16.2263 39.205 16.0426C38.795 15.8337 38.2568 15.8337 37.1833 15.8337H28.75M28.75 38.8337V15.8337" stroke="white" stroke-width="2" stroke-linecap="round" stroke-linejoin="round"/>
</svg>
