<svg width="48" height="48" viewBox="0 0 48 48" fill="none" xmlns="http://www.w3.org/2000/svg">
<g clip-path="url(#clip0_546_3602)">
<path d="M24 48C37.2548 48 48 37.2548 48 24C48 10.7452 37.2548 0 24 0C10.7452 0 0 10.7452 0 24C0 37.2548 10.7452 48 24 48Z" fill="#F7931A"/>
<path d="M34.7843 21.03C35.2553 17.886 32.8598 16.1955 29.5868 15.0675L30.6488 10.8075L28.0568 10.1625L27.0218 14.31C26.3408 14.139 25.6418 13.98 24.9443 13.821L25.9868 9.6465L23.3948 9L22.3328 13.2585C21.7688 13.1295 21.2138 13.0035 20.6768 12.8685L20.6798 12.855L17.1038 11.9625L16.4138 14.7315C16.4138 14.7315 18.3383 15.1725 18.2978 15.1995C19.3478 15.462 19.5368 16.1565 19.5053 16.7085L18.2963 21.561C18.3683 21.579 18.4613 21.606 18.5663 21.6465L18.2918 21.579L16.5968 28.377C16.4678 28.695 16.1423 29.1735 15.4073 28.992C15.4343 29.0295 13.5233 28.5225 13.5233 28.5225L12.2363 31.4895L15.6113 32.331C16.2383 32.4885 16.8533 32.6535 17.4578 32.808L16.3853 37.116L18.9758 37.761L20.0378 33.501C20.7458 33.6915 21.4328 33.8685 22.1048 34.0365L21.0458 38.2785L23.6378 38.9235L24.7103 34.6245C29.1323 35.4615 32.4563 35.124 33.8558 31.125C34.9838 27.906 33.8003 26.0475 31.4738 24.837C33.1688 24.447 34.4438 23.3325 34.7843 21.03ZM28.8593 29.337C28.0598 32.5575 22.6373 30.816 20.8793 30.3795L22.3043 24.672C24.0623 25.1115 29.6978 25.98 28.8593 29.337ZM29.6618 20.9835C28.9313 23.913 24.4193 22.4235 22.9568 22.059L24.2468 16.884C25.7093 17.2485 30.4238 17.928 29.6618 20.9835Z" fill="white"/>
</g>
<defs>
<clipPath id="clip0_546_3602">
<rect width="48" height="48" fill="white"/>
</clipPath>
</defs>
</svg>
