<svg width="48" height="48" viewBox="0 0 48 48" fill="none" xmlns="http://www.w3.org/2000/svg">
<g clip-path="url(#clip0_546_3608)">
<path d="M24 48C37.2548 48 48 37.2548 48 24C48 10.7452 37.2548 0 24 0C10.7452 0 0 10.7452 0 24C0 37.2548 10.7452 48 24 48Z" fill="#23292F"/>
<path d="M34.605 12H38.94L29.9175 20.9355C28.34 22.4897 26.2145 23.3609 24 23.3609C21.7855 23.3609 19.66 22.4897 18.0825 20.9355L9.0525 12H13.395L20.25 18.7845C21.2482 19.7698 22.5944 20.3222 23.997 20.3222C25.3996 20.3222 26.7458 19.7698 27.744 18.7845L34.605 12ZM13.3425 36.8445H9L18.0825 27.855C19.66 26.3008 21.7855 25.4296 24 25.4296C26.2145 25.4296 28.34 26.3008 29.9175 27.855L39 36.843H34.6575L27.75 30C26.7518 29.0147 25.4056 28.4623 24.003 28.4623C22.6004 28.4623 21.2542 29.0147 20.256 30L13.341 36.8445H13.3425Z" fill="white"/>
</g>
<defs>
<clipPath id="clip0_546_3608">
<rect width="48" height="48" fill="white"/>
</clipPath>
</defs>
</svg>
