<svg width="46" height="46" viewBox="0 0 46 46" fill="none" xmlns="http://www.w3.org/2000/svg">
<path d="M15.3337 23.0003L21.0837 28.7503L30.667 17.2503M7.66699 32.2007V13.8007C7.66699 11.6538 7.66699 10.5796 8.0848 9.7596C8.45232 9.03831 9.03831 8.45232 9.7596 8.0848C10.5796 7.66699 11.6538 7.66699 13.8007 7.66699H32.2007C34.3476 7.66699 35.4195 7.66699 36.2395 8.0848C36.9608 8.45232 37.5487 9.03831 37.9163 9.7596C38.3337 10.5788 38.3337 11.6517 38.3337 13.7944V32.2072C38.3337 34.3499 38.3337 35.4212 37.9163 36.2404C37.5487 36.9617 36.9608 37.5487 36.2395 37.9163C35.4203 38.3337 34.3489 38.3337 32.2062 38.3337H13.7944C11.6517 38.3337 10.5788 38.3337 9.7596 37.9163C9.03831 37.5487 8.45232 36.9617 8.0848 36.2404C7.66699 35.4204 7.66699 34.3476 7.66699 32.2007Z" stroke="url(#paint0_linear_546_3856)" stroke-width="2" stroke-linecap="round" stroke-linejoin="round"/>
<defs>
<linearGradient id="paint0_linear_546_3856" x1="7.66699" y1="24.6144" x2="38.9041" y2="24.5644" gradientUnits="userSpaceOnUse">
<stop stop-color="#FFB347"/>
<stop offset="0.33" stop-color="#E86F00"/>
<stop offset="0.66" stop-color="#F755C1"/>
<stop offset="1" stop-color="#8A2BE2"/>
</linearGradient>
</defs>
</svg>
