<svg width="46" height="46" viewBox="0 0 46 46" fill="none" xmlns="http://www.w3.org/2000/svg">
<path d="M22.9997 34.5V28.75M22.9997 28.75V23M22.9997 28.75H17.2497M22.9997 28.75H28.7497M24.9163 5.75167C24.7333 5.75 24.5278 5.75 24.2929 5.75H15.7167C13.5698 5.75 12.4956 5.75 11.6756 6.16781C10.9543 6.53532 10.3683 7.12132 10.0008 7.84261C9.58301 8.66261 9.58301 9.73684 9.58301 11.8837V34.117C9.58301 36.2639 9.58301 37.3368 10.0008 38.1568C10.3683 38.8781 10.9543 39.4651 11.6756 39.8326C12.4948 40.25 13.5678 40.25 15.7105 40.25L30.2889 40.25C32.4316 40.25 33.503 40.25 34.3222 39.8326C35.0435 39.4651 35.6314 38.8781 35.9989 38.1568C36.4163 37.3376 36.4163 36.2662 36.4163 34.1235V17.8742C36.4163 17.639 36.4163 17.4332 36.4145 17.25M24.9163 5.75167C25.4638 5.75665 25.8102 5.77654 26.1408 5.85592C26.5319 5.94982 26.9056 6.10509 27.2485 6.31527C27.6353 6.55225 27.9673 6.88432 28.6299 7.54687L34.6204 13.5374C35.2834 14.2004 35.613 14.5309 35.8501 14.9178C36.0602 15.2608 36.2157 15.6347 36.3097 16.0259C36.389 16.3564 36.4093 16.7028 36.4145 17.25M24.9163 5.75167V11.1167C24.9163 13.2635 24.9163 14.3362 25.3342 15.1562C25.7017 15.8775 26.2877 16.4651 27.009 16.8326C27.8281 17.25 28.9011 17.25 31.0438 17.25H36.4145M36.4145 17.25H36.4167" stroke="url(#paint0_linear_546_4414)" stroke-width="2" stroke-linecap="round" stroke-linejoin="round"/>
<defs>
<linearGradient id="paint0_linear_546_4414" x1="9.58301" y1="24.8158" x2="36.9159" y2="24.7818" gradientUnits="userSpaceOnUse">
<stop stop-color="#FFB347"/>
<stop offset="0.33" stop-color="#E86F00"/>
<stop offset="0.66" stop-color="#F755C1"/>
<stop offset="1" stop-color="#8A2BE2"/>
</linearGradient>
</defs>
</svg>
