<svg width="34" height="34" viewBox="0 0 34 34" fill="none" xmlns="http://www.w3.org/2000/svg">
<path d="M9.33268 17.0003L15.0827 22.7503L24.666 11.2503M1.66602 26.2007V7.8007C1.66602 5.65383 1.66602 4.5796 2.08382 3.7596C2.45134 3.03831 3.03734 2.45232 3.75863 2.0848C4.57862 1.66699 5.65286 1.66699 7.79972 1.66699H26.1997C28.3466 1.66699 29.4185 1.66699 30.2385 2.0848C30.9598 2.45232 31.5478 3.03831 31.9153 3.7596C32.3327 4.5788 32.3327 5.65173 32.3327 7.7944V26.2072C32.3327 28.3499 32.3327 29.4212 31.9153 30.2404C31.5478 30.9617 30.9598 31.5487 30.2385 31.9163C29.4193 32.3337 28.3479 32.3337 26.2053 32.3337H7.79343C5.65075 32.3337 4.57782 32.3337 3.75863 31.9163C3.03734 31.5487 2.45134 30.9617 2.08382 30.2404C1.66602 29.4204 1.66602 28.3476 1.66602 26.2007Z" stroke="url(#paint0_linear_1062_4493)" stroke-width="2" stroke-linecap="round" stroke-linejoin="round"/>
<defs>
<linearGradient id="paint0_linear_1062_4493" x1="1.66602" y1="18.6144" x2="32.9031" y2="18.5644" gradientUnits="userSpaceOnUse">
<stop stop-color="#FFB347"/>
<stop offset="0.33" stop-color="#E86F00"/>
<stop offset="0.66" stop-color="#F755C1"/>
<stop offset="1" stop-color="#8A2BE2"/>
</linearGradient>
</defs>
</svg>
